<?xml version="1.0" encoding="iso-8859-1"?>
<!-- Generator: Adobe Illustrator 19.0.0, SVG Export Plug-In . SVG Version: 6.00 Build 0)  -->
<svg version="1.1" id="Layer_1" xmlns="http://www.w3.org/2000/svg" xmlns:xlink="http://www.w3.org/1999/xlink" x="0px" y="0px"
	 viewBox="0 0 512 512" style="enable-background:new 0 0 512 512;" xml:space="preserve">
<path style="fill:#FFCC33;" d="M450.424,73.976c-3.276,32.712-35.617,59.14-68.494,59.14H255.999
	c-6.902,0-13.098-4.25-15.576-10.685c-2.489-6.44-0.75-13.745,4.37-18.381l95.229-86.304C359.707-0.107,387.043-4.515,411.37,6.267
	C437.835,17.998,453.38,44.458,450.424,73.976z M299.283,99.724h83.695c17.397,0,33.073-12.83,34.316-30.182
	c1.161-16.195-8.162-29.697-24.041-34.433c-11.064-3.3-23.032,0.318-31.587,8.072C341.678,61.298,299.283,99.724,299.283,99.724z"/>
<path style="fill:#FFE14D;" d="M255.891,133.115H129.963c-32.869,0-65.212-26.42-68.496-59.125
	C58.504,44.474,74.052,18.005,100.51,6.273c24.316-10.778,51.641-6.386,71.358,11.468l95.229,86.31
	c5.12,4.636,6.859,11.941,4.37,18.381C268.989,128.866,262.794,133.115,255.891,133.115z M127.652,33.838
	c-4.715,0-9.501,1.053-14.15,3.201c-8.882,4.105-15.752,12.217-18.034,21.732c-5.182,21.606,11.149,40.952,31.901,40.952h85.239
	l-63.152-57.239C143.152,36.779,135.522,33.838,127.652,33.838z"/>
<path style="fill:#FF9F19;" d="M289.391,99.724h-66.783l0,0c0-18.442,14.949-33.391,33.391-33.391l0,0
	C274.442,66.333,289.391,81.283,289.391,99.724L289.391,99.724z"/>
<path style="fill:#F28618;" d="M289.391,99.724c0-18.442-14.949-33.391-33.391-33.391v33.391H289.391z"/>
<path style="fill:#E6563A;" d="M478.609,166.506v311.652c0,18.477-14.916,33.391-33.391,33.391H66.783
	c-18.475,0-33.391-14.915-33.391-33.391V166.506L478.609,166.506L478.609,166.506z"/>
<path style="fill:#D9472B;" d="M256,511.55h189.217c18.475,0,33.391-14.915,33.391-33.391V166.506H256V511.55z"/>
<path style="fill:#FF9F19;" d="M478.609,99.724H33.391C14.916,99.724,0,114.639,0,133.115v50.087
	c0,9.238,7.456,16.696,16.696,16.696h478.609c9.239,0,16.696-7.457,16.696-16.696v-50.087
	C512,114.639,497.084,99.724,478.609,99.724z"/>
<path style="fill:#F28618;" d="M478.609,99.724H256v100.174h239.304c9.239,0,16.696-7.457,16.696-16.696v-50.087
	C512,114.639,497.084,99.724,478.609,99.724z"/>
<rect x="222.609" y="99.727" style="fill:#FFE14D;" width="66.783" height="411.826"/>
<rect x="256" y="99.727" style="fill:#FFCC33;" width="33.391" height="411.826"/>
<g>
</g>
<g>
</g>
<g>
</g>
<g>
</g>
<g>
</g>
<g>
</g>
<g>
</g>
<g>
</g>
<g>
</g>
<g>
</g>
<g>
</g>
<g>
</g>
<g>
</g>
<g>
</g>
<g>
</g>
</svg>
